<?xml version="1.0"?>
<svg xmlns="http://www.w3.org/2000/svg" width="512" height="512" viewBox="0 0 128 128"><g><path d="M121.5,119.75h-5.964a15.4,15.4,0,0,0-14.39-9.75H97.13V84.966a19.223,19.223,0,0,0,3.3.281,17.4,17.4,0,0,0,9.418-2.6c2.647-1.713,5.872-5.122,6.2-11.634a1.751,1.751,0,0,0-1.224-1.757c-4.416-1.386-11.907-2.009-17.691,6.311V71.75A1.749,1.749,0,0,0,95.38,70h-6a1.749,1.749,0,0,0-1.75,1.75V88.881c-5.782-8.306-13.267-7.685-17.683-6.3a1.751,1.751,0,0,0-1.223,1.757c.325,6.513,3.549,9.922,6.2,11.635a17.4,17.4,0,0,0,9.417,2.6,19.149,19.149,0,0,0,3.292-.28V110.2a15.371,15.371,0,0,0-11.9,9.552H53.818A15.393,15.393,0,0,0,39.429,110H35.42V84.967a19.149,19.149,0,0,0,3.292.28,17.4,17.4,0,0,0,9.418-2.6c2.647-1.712,5.872-5.122,6.2-11.634A1.75,1.75,0,0,0,53.1,69.259c-4.417-1.387-11.9-2.009-17.684,6.3V71.75A1.75,1.75,0,0,0,33.67,70h-6a1.75,1.75,0,0,0-1.75,1.75V88.892c-5.784-8.318-13.272-7.7-17.691-6.309A1.75,1.75,0,0,0,7.006,84.34c.325,6.513,3.55,9.922,6.2,11.635a17.407,17.407,0,0,0,9.418,2.6,19.12,19.12,0,0,0,3.3-.281V110.2a15.37,15.37,0,0,0-11.909,9.553H6.5a1.75,1.75,0,0,0,0,3.5h115a1.75,1.75,0,0,0,0-3.5Zm-9.079-47.516a10.058,10.058,0,0,1-4.475,7.477,15.008,15.008,0,0,1-10.174,1.823C101.217,73.958,106.138,70.839,112.421,72.234Zm-35.6,20.8a10.062,10.062,0,0,1-4.474-7.477c6.289-1.394,11.2,1.724,14.647,9.3A15,15,0,0,1,76.822,93.036ZM50.7,72.234a10.064,10.064,0,0,1-4.474,7.478,15.014,15.014,0,0,1-10.174,1.822C39.5,73.959,44.419,70.842,50.7,72.234Zm-35.6,20.8a10.063,10.063,0,0,1-4.474-7.477c6.288-1.392,11.2,1.724,14.648,9.3A15.008,15.008,0,0,1,15.1,93.036ZM93.63,73.5V110h-2.5V96.1c0-.025,0-.051,0-.077V73.5Zm-61.71,0v9.2c0,.024,0,.047,0,.07V110h-2.5V73.5ZM17.865,119.75A11.916,11.916,0,0,1,28.4,113.5H39.429a11.916,11.916,0,0,1,10.535,6.25Zm61.718,0a11.914,11.914,0,0,1,10.534-6.25h11.029a11.919,11.919,0,0,1,10.536,6.25Z"/><path d="M6.5,59.582h115a1.75,1.75,0,0,0,0-3.5h-5.964a15.4,15.4,0,0,0-14.39-9.75H97.13V21.3a19.121,19.121,0,0,0,3.3.282,17.409,17.409,0,0,0,9.416-2.6c2.648-1.712,5.873-5.122,6.2-11.635a1.751,1.751,0,0,0-1.224-1.757C110.405,4.2,102.914,3.582,97.13,11.9V8.08a1.749,1.749,0,0,0-1.75-1.75h-6a1.749,1.749,0,0,0-1.75,1.75V25.213c-5.782-8.309-13.267-7.686-17.684-6.3a1.75,1.75,0,0,0-1.222,1.756c.325,6.513,3.549,9.921,6.2,11.635a17.41,17.41,0,0,0,9.418,2.6,19.137,19.137,0,0,0,3.291-.28V46.53a15.371,15.371,0,0,0-11.9,9.552H53.818a15.394,15.394,0,0,0-14.389-9.75H35.42V21.3a19.152,19.152,0,0,0,3.293.28,17.4,17.4,0,0,0,9.415-2.6C50.777,17.27,54,13.86,54.327,7.347A1.75,1.75,0,0,0,53.1,5.59C48.687,4.2,41.2,3.581,35.42,11.889V8.08a1.75,1.75,0,0,0-1.75-1.75h-6a1.75,1.75,0,0,0-1.75,1.75V25.224c-5.784-8.318-13.272-7.7-17.691-6.309a1.751,1.751,0,0,0-1.223,1.757c.325,6.512,3.55,9.921,6.2,11.634a17.405,17.405,0,0,0,9.419,2.6,19.117,19.117,0,0,0,3.3-.281V46.529a15.37,15.37,0,0,0-11.909,9.553H6.5a1.75,1.75,0,1,0,0,3.5ZM112.421,8.565a10.059,10.059,0,0,1-4.476,7.478,15,15,0,0,1-10.173,1.823C101.216,10.29,106.131,7.17,112.421,8.565Zm-35.6,20.8a10.063,10.063,0,0,1-4.474-7.476c6.289-1.4,11.2,1.724,14.647,9.3A15,15,0,0,1,76.822,29.367ZM50.7,8.565a10.065,10.065,0,0,1-4.475,7.479,15.006,15.006,0,0,1-10.173,1.822C39.5,10.29,44.417,7.172,50.7,8.565Zm-35.6,20.8a10.06,10.06,0,0,1-4.474-7.476c6.282-1.4,11.2,1.723,14.648,9.3A15,15,0,0,1,15.1,29.367ZM93.63,9.83v36.5h-2.5v-13.9c0-.026,0-.052,0-.078V9.83Zm-3.513,40h11.029a11.919,11.919,0,0,1,10.536,6.25h-32.1A11.914,11.914,0,0,1,90.117,49.832Zm-58.2-40v9.2c0,.023,0,.047,0,.071V46.332h-2.5V9.83Zm-3.52,40H39.429a11.916,11.916,0,0,1,10.535,6.25h-32.1A11.916,11.916,0,0,1,28.4,49.832Z"/></g></svg>
