<svg id="Flat" height="512" viewBox="0 0 512 512" width="512" xmlns="http://www.w3.org/2000/svg"><path d="m288 328v160h-192v-168l88-64z" fill="#fff1d8"/><path d="m288 328h143.5v160h-143.5z" fill="#eedbc4"/><path d="m128 392h48v96h-48z" fill="#fc7"/><path d="m320 392h80v48h-80z" fill="#fc7"/><path d="m48 360 136-96 136 96 24-32-160-112-160 112z" fill="#fcb73f"/><path d="m488 328h-144l-160-112h152z" fill="#fc7"/><path d="m488 328-16 32h-152l24-32z" fill="#fda725"/><path d="m208 392h48v48h-48z" fill="#fc7"/><path d="m352 216h64v72h-64z" fill="#87633e"/><path d="m352 216v72l-48-32v-40z" fill="#bc8d5d"/><path d="m312 183.862h-208v48.138l-48-48.138h-32v-159.862h288z" fill="#3ea7ff"/><path d="m56 56h224v95.862h-224z" fill="#a0cc00"/><g fill="#85b200"><path d="m104 152a48 48 0 0 0 -48-48v48z"/><path d="m56 104a48 48 0 0 0 48-48h-48z"/><path d="m232 56a48 48 0 0 0 48 48v-48z"/><path d="m280 104a48 48 0 0 0 -48 48h48z"/></g><path d="m192 80v-16h-16v-16h-16v16h-8a8.00008 8.00008 0 0 0 -8 8v32a8.00008 8.00008 0 0 0 8 8h24v16h-32v16h16v16h16v-16h8a8.00008 8.00008 0 0 0 8-8v-32a8.00008 8.00008 0 0 0 -8-8h-24v-16z" fill="#f2e368"/></svg>