<?xml version="1.0"?>
<svg xmlns="http://www.w3.org/2000/svg" viewBox="0 0 64 64" width="512" height="512"><g id="Home_loan" data-name="Home loan"><path d="M61.594,19.2,52,12.1V3a1,1,0,0,0-1-1H47a1,1,0,0,0-1,1V7.67L38.594,2.2a1,1,0,0,0-1.188,0l-23,17A1,1,0,0,0,15,21h5V41.634L17,43.3V41a1,1,0,0,0-1-1H8a1,1,0,0,0-1,1v1H3a1,1,0,0,0-1,1V59a1,1,0,0,0,1,1H7v1a1,1,0,0,0,1,1h8a1,1,0,0,0,1-1V58.253A8.927,8.927,0,0,0,22.313,60h9.562a9.016,9.016,0,0,0,4.469-1.188l23.35-13.448A3.973,3.973,0,0,0,61.68,41.9a4.026,4.026,0,0,0-.533-2A3.985,3.985,0,0,0,56,38.3V21h5a1,1,0,0,0,.594-1.8ZM48,4h2v6.626L48,9.148ZM4,58V44H7V58Zm11,2H9V42h6ZM59.408,40.89a2.037,2.037,0,0,1,.272,1.01,1.985,1.985,0,0,1-.989,1.733L35.349,57.078A7.02,7.02,0,0,1,31.875,58H22.313a6.954,6.954,0,0,1-4.949-2.05L17,55.586v-10l5.657-3.142a6.962,6.962,0,0,1,5.211-.642l13.294,3.562a2,2,0,1,1-1.036,3.863l-8.783-2.353a1,1,0,0,0-.517,1.932l8.783,2.353a4.038,4.038,0,0,0,1.042.138,3.934,3.934,0,0,0,3.971-4.167l12.065-6.965A2,2,0,0,1,59.408,40.89ZM50,41.718l-5.984,3.454a3.971,3.971,0,0,0-2.336-1.738L28.385,39.872a9.025,9.025,0,0,0-2.385-.3V18.084l12-8.87,12,8.87ZM55,19a1,1,0,0,0-1,1V39.409l-2,1.154V17.58a1,1,0,0,0-.406-.8l-13-9.61a1,1,0,0,0-1.188,0l-13,9.61a1,1,0,0,0-.406.8V39.805a9.019,9.019,0,0,0-2,.737V20a1,1,0,0,0-1-1H18.035L38,4.244,57.965,19Z"/><path d="M36,17v1.341A6,6,0,0,0,38,30a1,1,0,1,1-1,1,1,1,0,0,0-1-1H33a1,1,0,0,0-1,1,6.025,6.025,0,0,0,3,5.2V38a1,1,0,0,0,1,1h3a1,1,0,0,0,1-1V36.659A6.01,6.01,0,0,0,42.3,26.8l-.008-.008A6.033,6.033,0,0,0,38,25a1,1,0,1,1,1-1,1,1,0,0,0,1,1h3a1,1,0,0,0,1-1,6.025,6.025,0,0,0-3-5.2V17a1,1,0,0,0-1-1H37A1,1,0,0,0,36,17Zm2,2.1V18h1v1.41a1,1,0,0,0,.595.914A4.047,4.047,0,0,1,41.873,23H40.829A3,3,0,1,0,38,27a4.045,4.045,0,0,1,2.869,1.2A4.008,4.008,0,0,1,38.8,34.919a1,1,0,0,0-.8.981V37H37V35.59a1,1,0,0,0-.595-.914A4.047,4.047,0,0,1,34.127,32h1.044A3,3,0,1,0,38,28a4.04,4.04,0,0,1-2.865-1.2,4.008,4.008,0,0,1,2.063-6.72A1,1,0,0,0,38,19.1Z"/><path d="M12,55a1,1,0,0,0-1,1v1a1,1,0,0,0,2,0V56A1,1,0,0,0,12,55Z"/></g></svg>
