<svg id="Icon_Set" enable-background="new 0 0 64 64" height="512" viewBox="0 0 64 64" width="512" xmlns="http://www.w3.org/2000/svg"><path d="m40 36h-18c-6.627 0-12 5.373-12 12v12h42v-12c0-6.627-5.372-12-12-12z" fill="#005b8a"/><path d="m52 60.5h-42c-.276 0-.5-.224-.5-.5v-12c0-6.893 5.607-12.5 12.5-12.5h18c6.893 0 12.5 5.607 12.5 12.5v12c0 .276-.224.5-.5.5zm-41.5-1h41v-11.5c0-6.341-5.159-11.5-11.5-11.5h-18c-6.341 0-11.5 5.159-11.5 11.5z" fill="#212a41"/><path d="m18 48v12h42v-12c0-6.627-5.373-12-12-12h-18c-6.627 0-12 5.373-12 12z" fill="#0079a8"/><path d="m60 60.5h-42c-.276 0-.5-.224-.5-.5v-12c0-6.893 5.607-12.5 12.5-12.5h18c6.893 0 12.5 5.607 12.5 12.5v12c0 .276-.224.5-.5.5zm-41.5-1h41v-11.5c0-6.341-5.159-11.5-11.5-11.5h-18c-6.341 0-11.5 5.159-11.5 11.5z" fill="#212a41"/><circle cx="47" cy="19" fill="#e8d2a8" r="3"/><path d="m47 22.5c-1.93 0-3.5-1.57-3.5-3.5s1.57-3.5 3.5-3.5 3.5 1.57 3.5 3.5-1.57 3.5-3.5 3.5zm0-6c-1.379 0-2.5 1.122-2.5 2.5s1.121 2.5 2.5 2.5 2.5-1.122 2.5-2.5-1.121-2.5-2.5-2.5z" fill="#212a41"/><path d="m23 10v6c-1.657 0-3 1.343-3 3s1.343 3 3 3v2c0 4.418 3.582 8 8 8h8c4.418 0 8-3.582 8-8v-14c0-3.314-2.686-6-6-6h-12c-3.314 0-6 2.686-6 6z" fill="#e0c8a4"/><path d="m39 32.5h-8c-4.687 0-8.5-3.813-8.5-8.5v-1.536c-1.694-.243-3-1.704-3-3.464s1.306-3.221 3-3.464v-5.536c0-3.584 2.916-6.5 6.5-6.5h12c3.584 0 6.5 2.916 6.5 6.5v14c0 4.687-3.813 8.5-8.5 8.5zm-10-28c-3.032 0-5.5 2.467-5.5 5.5v6c0 .276-.224.5-.5.5-1.379 0-2.5 1.122-2.5 2.5s1.121 2.5 2.5 2.5c.276 0 .5.224.5.5v2c0 4.136 3.364 7.5 7.5 7.5h8c4.136 0 7.5-3.364 7.5-7.5v-14c0-3.033-2.468-5.5-5.5-5.5z" fill="#212a41"/><path d="m39 30.5c-.276 0-.5-.224-.5-.5s.224-.5.5-.5c3.032 0 5.5-2.467 5.5-5.5v-12c0-.276.224-.5.5-.5s.5.224.5.5v12c0 3.584-2.916 6.5-6.5 6.5z" fill="#c2aa86"/><path d="m31 30.5c-3.584 0-6.5-2.916-6.5-6.5v-2c0-.276.224-.5.5-.5s.5.224.5.5v2c0 3.033 2.468 5.5 5.5 5.5.276 0 .5.224.5.5s-.224.5-.5.5z" fill="#fee6c2"/><path d="m30 32h10v4h-10z" fill="#e8d2a8"/><path d="m40 36.5h-10c-.276 0-.5-.224-.5-.5v-4c0-.276.224-.5.5-.5h10c.276 0 .5.224.5.5v4c0 .276-.224.5-.5.5zm-9.5-1h9v-3h-9z" fill="#212a41"/><path d="m23 22.5c-.935 0-1.813-.364-2.475-1.025-.661-.661-1.025-1.54-1.025-2.475s.364-1.814 1.025-2.475c1.323-1.323 3.63-1.321 4.949 0 .195.195.195.512 0 .707s-.512.195-.707 0c-.942-.943-2.589-.945-3.535 0-.472.473-.732 1.101-.732 1.768s.26 1.295.732 1.768c.946.945 2.593.944 3.535 0 .195-.195.512-.195.707 0s.195.512 0 .707c-.66.661-1.538 1.025-2.474 1.025z" fill="#212a41"/><path d="m20 58.5c-.276 0-.5-.224-.5-.5v-10c0-5.79 4.71-10.5 10.5-10.5.276 0 .5.224.5.5s-.224.5-.5.5c-5.238 0-9.5 4.262-9.5 9.5v10c0 .276-.224.5-.5.5z" fill="#1e97c6"/><path d="m49 12h-26v-2c0-3.314 2.686-6 6-6h14c3.314 0 6 2.686 6 6z" fill="#6c696f"/><path d="m49 12.5h-26c-.276 0-.5-.224-.5-.5v-2c0-3.584 2.916-6.5 6.5-6.5h14c3.584 0 6.5 2.916 6.5 6.5v2c0 .276-.224.5-.5.5zm-25.5-1h25v-1.5c0-3.033-2.468-5.5-5.5-5.5h-14c-3.032 0-5.5 2.467-5.5 5.5z" fill="#212a41"/><path d="m47 10.5c-.276 0-.5-.224-.5-.5 0-1.93-1.57-3.5-3.5-3.5-.276 0-.5-.224-.5-.5s.224-.5.5-.5c2.481 0 4.5 2.019 4.5 4.5 0 .276-.224.5-.5.5z" fill="#4e4b51"/><path d="m23 16h-3v-5c0-2.209 1.791-4 4-4h3v5c0 2.209-1.791 4-4 4z" fill="#4e4b51"/><path d="m23 16.5h-3c-.276 0-.5-.224-.5-.5v-5c0-2.481 2.019-4.5 4.5-4.5h3c.276 0 .5.224.5.5v5c0 2.481-2.019 4.5-4.5 4.5zm-2.5-1h2.5c1.93 0 3.5-1.57 3.5-3.5v-4.5h-2.5c-1.93 0-3.5 1.57-3.5 3.5z" fill="#212a41"/><path d="m22 14.5c-.276 0-.5-.224-.5-.5v-3c0-1.378 1.121-2.5 2.5-2.5h1c.276 0 .5.224.5.5s-.224.5-.5.5h-1c-.827 0-1.5.673-1.5 1.5v3c0 .276-.224.5-.5.5z" fill="#6c696f"/><path d="m58 58.5c-.276 0-.5-.224-.5-.5v-10c0-5.238-4.262-9.5-9.5-9.5-.276 0-.5-.224-.5-.5s.224-.5.5-.5c5.79 0 10.5 4.71 10.5 10.5v10c0 .276-.224.5-.5.5z" fill="#005b8a"/><path d="m37 44-5-8h14l-5 8z" fill="#e8d2a8"/><path d="m41 44.5h-4c-.173 0-.333-.089-.424-.235l-5-8c-.097-.154-.102-.349-.014-.507.088-.159.256-.258.438-.258h14c.182 0 .35.099.437.258.088.159.083.353-.014.507l-5 8c-.09.146-.25.235-.423.235zm-3.723-1h3.445l4.375-7h-12.195z" fill="#212a41"/><path d="m32 36v8h5z" fill="#0079a8"/><path d="m37 44.5h-5c-.276 0-.5-.224-.5-.5v-8c0-.223.147-.419.362-.48s.443.026.562.215l5 8c.097.154.102.349.014.507-.088.159-.256.258-.438.258zm-4.5-1h3.598l-3.598-5.757z" fill="#212a41"/><path d="m46 36v8h-5z" fill="#0079a8"/><path d="m46 44.5h-5c-.182 0-.35-.099-.438-.258s-.083-.353.014-.507l5-8c.118-.189.347-.277.562-.215s.362.257.362.48v8c0 .276-.224.5-.5.5zm-4.098-1h3.598v-5.757z" fill="#212a41"/><path d="m39 60.5c-.276 0-.5-.224-.5-.5v-16c0-.276.224-.5.5-.5s.5.224.5.5v16c0 .276-.224.5-.5.5z" fill="#212a41"/><path d="m25 60h-20c-.552 0-1-.448-1-1v-28c0-.552.448-1 1-1h20c.552 0 1 .448 1 1v28c0 .552-.448 1-1 1z" fill="#c2c2c2"/><path d="m25 60.5h-20c-.827 0-1.5-.673-1.5-1.5v-28c0-.827.673-1.5 1.5-1.5h20c.827 0 1.5.673 1.5 1.5v28c0 .827-.673 1.5-1.5 1.5zm-20-30c-.275 0-.5.224-.5.5v28c0 .276.225.5.5.5h20c.275 0 .5-.224.5-.5v-28c0-.276-.225-.5-.5-.5z" fill="#212a41"/><path d="m28 60h-20c-.552 0-1-.448-1-1v-28c0-.552.448-1 1-1h20c.552 0 1 .448 1 1v28c0 .552-.448 1-1 1z" fill="#e0e0e0"/><path d="m28 60.5h-20c-.827 0-1.5-.673-1.5-1.5v-28c0-.827.673-1.5 1.5-1.5h20c.827 0 1.5.673 1.5 1.5v28c0 .827-.673 1.5-1.5 1.5zm-20-30c-.275 0-.5.224-.5.5v28c0 .276.225.5.5.5h20c.275 0 .5-.224.5-.5v-28c0-.276-.225-.5-.5-.5z" fill="#212a41"/><path d="m24 53.5h-12c-.276 0-.5-.224-.5-.5s.224-.5.5-.5h12c.276 0 .5.224.5.5s-.224.5-.5.5z" fill="#212a41"/><path d="m23 56.5h-10c-.276 0-.5-.224-.5-.5s.224-.5.5-.5h10c.276 0 .5.224.5.5s-.224.5-.5.5z" fill="#212a41"/><path d="m27 58.5c-.276 0-.5-.224-.5-.5v-26c0-.276.224-.5.5-.5s.5.224.5.5v26c0 .276-.224.5-.5.5z" fill="#c2c2c2"/><path d="m9 58.5c-.276 0-.5-.224-.5-.5v-26c0-.276.224-.5.5-.5s.5.224.5.5v26c0 .276-.224.5-.5.5z" fill="#fefefe"/><path d="m20.402 47.998-2.402 2.002-2.402-2.002c-2.28-1.9-3.598-4.714-3.598-7.682v-4.316l6-2 6 2v4.316c0 2.968-1.318 5.782-3.598 7.682z" fill="#f9ac2f"/><g fill="#212a41"><path d="m18 50.5c-.113 0-.228-.039-.32-.116l-2.402-2.001c-2.4-2.001-3.777-4.941-3.777-8.066v-4.317c0-.215.138-.406.342-.474l6-2c.104-.034.213-.034.316 0l6 2c.203.068.341.259.341.474v4.316c0 3.125-1.377 6.065-3.778 8.066l-2.401 2.001c-.093.078-.208.117-.321.117zm-5.5-14.14v3.956c0 2.828 1.246 5.487 3.418 7.298l2.082 1.735 2.081-1.735c2.173-1.81 3.419-4.47 3.419-7.298v-3.956l-5.5-1.833z"/><path d="m18.5 44h-2c-.276 0-.5-.224-.5-.5s.224-.5.5-.5h2c.275 0 .5-.224.5-.5v-.5c0-.276-.225-.5-.5-.5h-1c-.827 0-1.5-.673-1.5-1.5v-.5c0-.827.673-1.5 1.5-1.5h2c.276 0 .5.224.5.5s-.224.5-.5.5h-2c-.275 0-.5.224-.5.5v.5c0 .276.225.5.5.5h1c.827 0 1.5.673 1.5 1.5v.5c0 .827-.673 1.5-1.5 1.5z"/><path d="m18 39c-.276 0-.5-.224-.5-.5v-1c0-.276.224-.5.5-.5s.5.224.5.5v1c0 .276-.224.5-.5.5z"/><path d="m18 45c-.276 0-.5-.224-.5-.5v-1c0-.276.224-.5.5-.5s.5.224.5.5v1c0 .276-.224.5-.5.5z"/></g></svg>