<svg id="_x33_0" enable-background="new 0 0 64 64" height="512" viewBox="0 0 64 64" width="512" xmlns="http://www.w3.org/2000/svg"><g><g><g><path d="m30.52 14.03v-.01c-.34-.94-.52-1.96-.52-3.02 0-4.97 4.03-9 9-9 3.74 0 6.95 2.28 8.31 5.54.83-.35 1.73-.54 2.69-.54 3.87 0 7 3.13 7 7 0 .78-.13 1.54-.37 2.24v.01c.43-.16.89-.25 1.37-.25 2.21 0 4 1.79 4 4s-1.79 4-4 4h-6-21c-.39 0-.77-.04-1.13-.13.08-.27.13-.57.13-.87 0-.87-.37-1.65-.96-2.2l.78-3.92c.12-.58.18-1.18.18-1.78 0-.33-.02-.67-.06-.99h.01c.19-.04.38-.07.57-.08z" fill="#e6e9ed"/></g><g><path d="m29.94 14.11c.04.32.06.66.06.99 0 .6-.06 1.2-.18 1.78l-.78 3.92c-.53-.49-1.25-.8-2.04-.8h-1l-8.62-.78c-.68-.06-1.27-.38-1.7-.84-.42-.47-.68-1.09-.68-1.77 0-.36.07-.7.21-1.02l-.41.31c-1.35 1.01-2.28 2.48-2.63 4.1h-.01-1.16c-.8 0-1.53.32-2.06.82l-.72-2.16c-.15-.44-.22-.9-.22-1.36 0-1.44.72-2.78 1.92-3.58l1.08-.72-.57-1.15c-.28-.56-.43-1.18-.43-1.8 0-1.12.45-2.13 1.18-2.87.74-.73 1.75-1.18 2.87-1.18h6.85c4.7 0 8.55 3.55 9.04 8.11z" fill="#b27946"/></g><g><path d="m21 44 3 12h-10l3-12z" fill="#b4dd7f"/></g><g><path d="m22 40.8-1 3.2h-4l-1-3.2 3-1.8z" fill="#a0d468"/></g><g><path d="m16 40.8 1 3.2-3 12h-12v-10.94c0-1.58.4-3.11 1.12-4.46s1.78-2.53 3.09-3.41c1.18-.78 2.52-1.29 3.91-1.49l2.86-.41 1.02 6.71z" fill="#4fc1e9"/></g><g><path d="m33.71 38.9-2.32 2.32.75.75c.84.84 1.08 2.1.62 3.19 0 .01-.01.03-.01.04-.45 1.09-1.51 1.8-2.7 1.8h-1.05v4h1.05c1.19 0 2.25.71 2.7 1.8 0 .01.01.03.01.04.45 1.08.23 2.32-.59 3.16h-8.17l-3-12 1-3.2 2 1.2 1.02-6.71 2.86.41c1.39.2 2.73.71 3.91 1.49.72.48 1.37 1.06 1.92 1.71z" fill="#4fc1e9"/></g><g><path d="m19 39-3 1.8-2 1.2-1.02-6.71 2.02-.29z" fill="#3bafda"/></g><g><path d="m25.02 35.29-1.02 6.71-2-1.2-3-1.8 4-4z" fill="#3bafda"/></g><g><path d="m29.12 25.12c-.54.54-1.29.88-2.12.88h-1.07-.01c.06-.33.08-.66.08-1v-5h1c.79 0 1.51.31 2.04.8.59.55.96 1.33.96 2.2 0 .3-.05.6-.13.87-.15.48-.41.91-.75 1.25z" fill="#f0d0b4"/></g><g><path d="m22.07 31.29.93 3.71-4 4-4-4 .93-3.71c.92.46 1.96.71 3.07.71s2.15-.25 3.07-.71z" fill="#f0d0b4"/></g><g><path d="m26 20v5c0 .34-.02.67-.08 1-.32 2.34-1.81 4.3-3.85 5.29-.92.46-1.96.71-3.07.71s-2.15-.25-3.07-.71c-.7-.34-1.33-.79-1.88-1.34-1.05-1.05-1.76-2.41-1.97-3.95-.06-.33-.08-.66-.08-1v-3.5c0-.51.06-1.01.17-1.5.35-1.62 1.28-3.09 2.63-4.1l.41-.31c-.14.32-.21.66-.21 1.02 0 .68.26 1.3.68 1.77.43.46 1.02.78 1.7.84z" fill="#f0d0b4"/></g><g><path d="m12 25c0 .34.02.67.08 1h-.01-1.07c-.83 0-1.58-.34-2.12-.88s-.88-1.29-.88-2.12c0-.86.36-1.63.94-2.18.53-.5 1.26-.82 2.06-.82h1.16.01c-.11.49-.17.99-.17 1.5z" fill="#f0d0b4"/></g><g><path d="m42 43c3.31 0 6 2.69 6 6s-2.69 6-6 6-6-2.69-6-6 2.69-6 6-6zm2 6c0-1.1-.9-2-2-2s-2 .9-2 2 .9 2 2 2 2-.9 2-2z" fill="#fcd770"/></g><g><path d="m33.71 38.9.51-.51.75.75c.84.84 2.1 1.08 3.19.62.01 0 .03-.01.04-.01 1.09-.45 1.8-1.51 1.8-2.7v-1.05h2 2v1.05c0 1.19.71 2.25 1.8 2.7.01 0 .03.01.04.01 1.09.46 2.35.22 3.19-.62l.75-.75 2.83 2.83-.75.75c-.84.84-1.08 2.1-.62 3.19 0 .01.01.03.01.04.45 1.09 1.51 1.8 2.7 1.8h1.05v4h-1.05c-1.19 0-2.25.71-2.7 1.8 0 .01-.01.03-.01.04-.46 1.09-.22 2.35.62 3.19l.75.75-2.83 2.83-.75-.75c-.84-.84-2.1-1.08-3.19-.62-.01 0-.03.01-.04.01-1.09.45-1.8 1.51-1.8 2.7v1.05h-4v-1.05c0-1.19-.71-2.25-1.8-2.7-.01 0-.03-.01-.04-.01-1.09-.46-2.35-.22-3.19.62l-.75.75-2.83-2.83.75-.75.03-.03c.82-.84 1.04-2.08.59-3.16 0-.01-.01-.03-.01-.04-.45-1.09-1.51-1.8-2.7-1.8h-1.05v-4h1.05c1.19 0 2.25-.71 2.7-1.8 0-.01.01-.03.01-.04.46-1.09.22-2.35-.62-3.19l-.75-.75zm14.29 10.1c0-3.31-2.69-6-6-6s-6 2.69-6 6 2.69 6 6 6 6-2.69 6-6z" fill="#ffc729"/></g></g><g><path d="m58 15c-.028 0-.054.008-.081.008.042-.334.081-.669.081-1.008 0-4.411-3.589-8-8-8-.761 0-1.495.114-2.193.313-1.726-3.247-5.075-5.313-8.807-5.313-4.933 0-9.033 3.594-9.844 8.3-1.83-2.596-4.845-4.3-8.255-4.3h-6.856c-2.782 0-5.045 2.263-5.045 5.045 0 .78.185 1.561.533 2.256l.178.356-.35.233c-1.479.986-2.361 2.635-2.361 4.412 0 .57.091 1.134.272 1.677l.543 1.628c-.505.669-.815 1.492-.815 2.393 0 2.206 1.794 4 4 4h.263c.519 2.007 1.796 3.708 3.511 4.78l-.581 2.325-4.209.602c-1.538.22-3.033.792-4.324 1.652-2.918 1.945-4.66 5.199-4.66 8.705v11.936h29.196l4.023 4.024 1.457-1.456c.552-.552 1.376-.711 2.141-.393.719.297 1.183.992 1.183 1.77v2.055h6v-2.055c0-.778.464-1.473 1.222-1.786.725-.303 1.55-.143 2.102.409l1.457 1.455 4.243-4.244-1.456-1.456c-.551-.551-.711-1.376-.393-2.141.297-.718.992-1.182 1.77-1.182h2.055v-6h-2.055c-.778 0-1.473-.464-1.786-1.222-.303-.726-.143-1.551.409-2.102l1.455-1.456-4.244-4.244-1.456 1.456c-.552.551-1.377.709-2.141.393-.718-.297-1.182-.992-1.182-1.77v-2.055h-2v-1c0-1.654-1.346-3-3-3h-4c-.551 0-1-.449-1-1s.449-1 1-1h16c1.654 0 3-1.346 3-3 0-.352-.072-.686-.184-1h3.184c2.757 0 5-2.243 5-5s-2.243-5-5-5zm-31 6c1.103 0 2 .897 2 2s-.897 2-2 2zm-16.53-6.445 1.819-1.213-.968-1.936c-.21-.42-.321-.89-.321-1.361 0-1.679 1.366-3.045 3.045-3.045h6.856c4.466 0 8.099 3.633 8.099 8.099 0 .533-.053 1.067-.157 1.588l-.511 2.558c-.419-.149-.863-.245-1.332-.245h-.956l-8.578-.78c-.836-.076-1.466-.766-1.466-1.606 0-.614.342-1.167.891-1.442l.556-.278-.894-1.789-.557.278c-.699.35-1.248.9-1.592 1.563l-.204.154c-1.317.988-2.276 2.364-2.784 3.9h-.416c-.535 0-1.045.11-1.512.301l-.319-.955c-.112-.338-.169-.689-.169-1.044 0-1.106.55-2.133 1.47-2.747zm-1.47 8.445c0-1.103.897-2 2-2h.03c-.011.167-.03.332-.03.5v3.5c-1.103 0-2-.897-2-2zm4 2v-3.5c0-1.317.441-2.593 1.223-3.626.468 1.273 1.631 2.208 3.063 2.338l7.714.701v4.087c0 3.309-2.691 6-6 6s-6-2.691-6-6zm18.432 17.676c.551.551.711 1.376.393 2.141-.297.719-.992 1.183-1.77 1.183h-2.055v6h2.055c.778 0 1.473.464 1.786 1.222.249.597.169 1.254-.169 1.778h-6.89l-2.743-10.97.537-1.719 2.19 1.314 1.092-7.207 1.876.268c1.244.178 2.454.641 3.498 1.337.384.256.738.552 1.075.867l-2.33 2.33zm-12.432-2.51 1.811 1.086-.546 1.748h-2.53l-.546-1.747zm-1.219 4.834h2.439l2.5 10h-7.438zm5.454-4.625-2.622-1.573 2.741-2.741.524.075zm-4.235-7.375c.828 0 1.627-.127 2.379-.361l.514 2.055-2.893 2.892-2.892-2.892.514-2.055c.751.234 1.55.361 2.378.361zm-4.353 3.061 2.741 2.741-2.622 1.573-.642-4.239zm-11.647 9.003c0-2.836 1.409-5.468 3.769-7.042 1.044-.696 2.254-1.159 3.498-1.337l1.876-.268 1.092 7.207 2.19-1.314.537 1.719-2.743 10.971h-10.219zm42.452-4.378c1.477.615 3.159.286 4.287-.84l.042-.042 1.416 1.416-.042.042c-1.127 1.127-1.457 2.81-.827 4.318.606 1.47 2.027 2.42 3.618 2.42h.054v2h-.055c-1.591 0-3.012.95-3.631 2.452-.616 1.477-.287 3.16.84 4.287l.042.042-1.416 1.416-.042-.042c-1.127-1.127-2.811-1.459-4.318-.827-1.47.606-2.42 2.026-2.42 3.617v.055h-2v-.055c0-1.591-.95-3.012-2.452-3.631-1.478-.617-3.16-.287-4.287.84l-.042.042-1.416-1.416.042-.042c1.127-1.127 1.457-2.81.827-4.318-.606-1.47-2.026-2.42-3.617-2.42h-.055v-2h.055c1.591 0 3.012-.95 3.631-2.452.616-1.477.287-3.16-.84-4.287l-.042-.042 1.416-1.416.042.042c1.126 1.127 2.81 1.457 4.318.827 1.47-.606 2.42-2.027 2.42-3.618v-.054h2v.055c0 1.591.95 3.011 2.452 3.631zm7.548-14.686c0 .551-.449 1-1 1h-16c-1.654 0-3 1.346-3 3s1.346 3 3 3h4c.551 0 1 .449 1 1v1h-2v2.055c0 .778-.464 1.473-1.222 1.786-.727.302-1.551.143-2.102-.409l-1.456-1.455-.503.503c-.43-.407-.882-.79-1.376-1.12-1.291-.861-2.786-1.433-4.324-1.652l-4.209-.602-.581-2.325c1.715-1.073 2.991-2.773 3.511-4.78h.262c1.486 0 2.771-.824 3.46-2.031.18.016.36.03.54.03h21c.551 0 1 .449 1 1zm5-3h-27c0-.94-.34-1.794-.885-2.478l.688-3.443c.13-.65.196-1.316.196-1.98 0-.033-.005-.065-.005-.099.003.001.004 0 .006 0 2.206 0 4 1.794 4 4h2c0-3.222-2.554-5.851-5.744-5.987-.169-.654-.256-1.328-.256-2.013 0-4.411 3.589-8 8-8 2.929 0 5.567 1.588 6.97 4.101-2.132 1.25-3.639 3.454-3.92 6.026-1.746.429-3.05 1.996-3.05 3.873h2c0-1.103.897-2 2-2s2 .897 2 2h2c0-1.834-1.248-3.368-2.935-3.838.41-2.912 2.911-5.162 5.935-5.162 3.309 0 6 2.691 6 6 0 .526-.086 1.04-.22 1.543-1.64.822-2.78 2.501-2.78 4.457h2c0-1.654 1.346-3 3-3s3 1.346 3 3-1.346 3-3 3z"/><circle cx="16" cy="23" r="1"/><circle cx="22" cy="23" r="1"/><path d="m22.789 26.658.105-.211-1.789-.895-.105.212c-.381.762-1.147 1.236-2 1.236s-1.619-.474-2-1.236l-.105-.211-1.789.895.105.211c.722 1.444 2.174 2.341 3.789 2.341s3.067-.897 3.789-2.342z"/><path d="m39 49c0 1.654 1.346 3 3 3s3-1.346 3-3-1.346-3-3-3-3 1.346-3 3zm4 0c0 .551-.449 1-1 1s-1-.449-1-1 .449-1 1-1 1 .449 1 1z"/><path d="m35 49c0 3.86 3.14 7 7 7s7-3.14 7-7-3.14-7-7-7-7 3.14-7 7zm12 0c0 2.757-2.243 5-5 5s-5-2.243-5-5 2.243-5 5-5 5 2.243 5 5z"/></g></g></svg>